<svg xmlns="http://www.w3.org/2000/svg" viewBox="0 0 200 400">
  <circle cx="100" cy="42" r="22"/>
  <rect x="92" y="60" width="16" height="14"/>
  <rect x="68" y="72" width="64" height="128" rx="16"/>
  <path d="M70 82 L46 190 L60 194 L84 96 Z"/>
  <path d="M130 82 L154 190 L140 194 L116 96 Z"/>
  <circle cx="53" cy="202" r="10"/>
  <circle cx="147" cy="202" r="10"/>
  <path d="M76 190 L70 340 L94 340 L100 190 Z"/>
  <path d="M124 190 L130 340 L106 340 L100 190 Z"/>
  <rect x="68" y="338" width="26" height="20" rx="5"/>
  <rect x="106" y="338" width="26" height="20" rx="5"/>
  <rect x="120" y="80" width="12" height="112" rx="6"/>
  <ellipse cx="100" cy="72" rx="9" ry="3"/>
</svg>
